<svg xmlns="http://www.w3.org/2000/svg" xmlns:xlink="http://www.w3.org/1999/xlink" viewBox="0,0,256,256" width="480px" height="480px" fill-rule="nonzero"><g transform=""><g fill-opacity="0" fill="#ffffff" fill-rule="nonzero" stroke="none" stroke-width="1" stroke-linecap="butt" stroke-linejoin="miter" stroke-miterlimit="10" stroke-dasharray="" stroke-dashoffset="0" font-family="none" font-weight="none" font-size="none" text-anchor="none" style="mix-blend-mode: normal"><path d="M0,256v-256h256v256z" id="bgRectangle"></path></g><g fill="none" fill-rule="nonzero" stroke="#ffffff" stroke-width="5.33333" stroke-linecap="butt" stroke-linejoin="miter" stroke-miterlimit="10" stroke-dasharray="" stroke-dashoffset="0" font-family="none" font-weight="none" font-size="none" text-anchor="none" style="mix-blend-mode: normal"><path d="M128,232.03663c-57.45784,0 -104.03663,-46.57879 -104.03663,-104.03663v0c0,-57.45784 46.57879,-104.03663 104.03663,-104.03663v0c57.45784,0 104.03663,46.57879 104.03663,104.03663v0c0,57.45784 -46.57879,104.03663 -104.03663,104.03663z" id="shape"></path></g><g fill="none" fill-rule="nonzero" stroke="none" stroke-width="1" stroke-linecap="butt" stroke-linejoin="miter" stroke-miterlimit="10" stroke-dasharray="" stroke-dashoffset="0" font-family="none" font-weight="none" font-size="none" text-anchor="none" style="mix-blend-mode: normal"><g transform="scale(5.33333,5.33333)"><path d="M44,24c0,11.045 -8.955,20 -20,20c-11.045,0 -20,-8.955 -20,-20c0,-11.045 8.955,-20 20,-20c11.045,0 20,8.955 20,20z" fill="#037dae"></path><path d="M22,22h4v11h-4zM26.5,16.5c0,1.379 -1.121,2.5 -2.5,2.5c-1.379,0 -2.5,-1.121 -2.5,-2.5c0,-1.379 1.121,-2.5 2.5,-2.5c1.379,0 2.5,1.121 2.5,2.5z" fill="#ffffff"></path></g></g></g></svg>