<svg xmlns:xlink="http://www.w3.org/1999/xlink" xmlns="http://www.w3.org/2000/svg" id="Layer_2" viewBox="0 0 200 28.02" width="245"  height="32" ><defs><style>.cls-1{fill:#009055;}.cls-2{fill:#fff;}.cls-3{fill:#8ac75a;}.cls-4{fill:#231f20;}</style></defs><g id="Layer_3"><g><g><path class="cls-3" d="M26.27,0H1.75C.78,0,0,.78,0,1.75V24.96H0v1.31c0,.97,.78,1.75,1.75,1.75H26.27c.97,0,1.75-.78,1.75-1.75V1.75c0-.97-.78-1.75-1.75-1.75Z"/><path class="cls-1" d="M26.27,0h-1.29C18.5,.48,12.5,3.48,8,8,3.48,12.5,.49,18.48,0,24.96v1.31c0,.97,.78,1.75,1.75,1.75H26.27c.97,0,1.75-.78,1.75-1.75V1.75c0-.97-.78-1.75-1.75-1.75Z"/><path class="cls-2" d="M17.26,14.48L10.5,5.81h-.04C14.59,2.53,19.61,.4,24.98,0c-5.83,.43-11.99,2.17-16.44,5.81h-2.28s0,2.19,0,2.19C2.33,12.48,.45,18.9,0,24.96H0c.42-5.6,2.72-10.83,6.25-15.05v12.3s4.51,0,4.51,0V13.21s7.02,8.99,7.02,8.99h3.98s0-16.4,0-16.4h-4.51s0,8.67,0,8.67Z"/></g><path class="cls-4" d="M140.61,19.73c-.37,.15-.75,.22-1.29,.22-.83,0-1.23-.46-1.23-1.39v-6.08s2.59,0,2.59,0v-2.28h-2.59V5.81h-.99c-1.09,0-1.97,.88-1.97,1.97v.09h0v2.33h-1.58v2.28h1.58v6.32c0,2.33,1.31,3.61,3.68,3.61,.72,0,1.34-.1,1.89-.3l.08-.03v-2.42l-.16,.07Z"/><path class="cls-4" d="M128.25,14.83c-1.81-.31-2.33-.62-2.33-1.39,0-.79,.67-1.28,1.75-1.28,1.19,0,1.76,.43,1.98,1.48l.02,.09h2.75s-.01-.13-.01-.13c-.27-2.43-1.86-3.66-4.73-3.66-2.18,0-4.53,1.14-4.53,3.65,0,2.22,1.14,3.18,4.35,3.7,1.84,.31,2.43,.68,2.43,1.51,0,.95-.64,1.39-2,1.39s-2.08-.53-2.23-1.79v-.1s-2.81,0-2.81,0v.12c.12,2.55,1.96,4.01,5.05,4.01s4.82-1.41,4.82-3.88c0-2.53-1.66-3.28-4.51-3.72Z"/><path class="cls-4" d="M115.94,9.95c-3.52,0-5.97,2.55-5.97,6.2v.18c0,2.38,1.04,4.25,2.76,5.27,.93,.54,2.05,.84,3.32,.84,3.12,0,5.13-1.43,5.52-3.93l.02-.14h-2.87l-.02,.1c-.2,1.13-1.07,1.7-2.59,1.7-1.89,0-3-1.15-3.12-3.26h8.62v-.91c0-4.47-2.93-6.06-5.68-6.06Zm0,2.22c1.66,0,2.58,.91,2.73,2.69h-5.61c.3-1.71,1.34-2.69,2.88-2.69Z"/><polygon class="cls-4" points="104.54 18.39 102.33 10.2 99.88 10.2 97.47 18.4 95.22 10.2 92.06 10.2 95.71 22.12 95.74 22.21 98.71 22.21 101 14.59 103.1 22.21 106.05 22.21 109.77 10.35 109.81 10.19 106.91 10.19 104.54 18.39"/><path class="cls-4" d="M87.17,9.95c-1.6,0-2.95,.66-3.69,1.79V5.81h-.99c-1.09,0-1.97,.88-1.97,1.97v14.43h2.96v-7.05c0-1.99,1.37-2.7,2.65-2.7,1.56,0,2.23,.74,2.23,2.47v7.28h2.96v-7.53c0-3.05-1.47-4.73-4.15-4.73Z"/><path class="cls-4" d="M78.63,19.73c-.37,.15-.75,.22-1.29,.22-.83,0-1.23-.46-1.23-1.39v-6.08s2.59,0,2.59,0v-2.28h-2.59V5.81s-.99,0-.99,0c-1.09,0-1.97,.88-1.97,1.97v.09h0v2.33h-1.58v2.28h1.58v6.32c0,2.33,1.31,3.61,3.68,3.61,.72,0,1.34-.1,1.89-.3l.08-.03v-2.42l-.16,.07Z"/><path class="cls-4" d="M66.54,12.06v-1.86h-2.96s0,12.01,0,12.01h2.96v-6.24c0-2.2,1.11-3.15,3.71-3.17h.12v-2.78h-.12c-1.72,.02-2.88,.66-3.71,2.05Z"/><path class="cls-4" d="M55.76,9.95c-3.64,0-6.17,2.55-6.17,6.2v.18c0,3.6,2.53,6.11,6.15,6.11,3.64,0,6.18-2.54,6.18-6.17v-.18c0-3.61-2.53-6.13-6.15-6.13Zm-3.15,6.15c0-2.37,1.18-3.78,3.15-3.78,1.96,0,3.13,1.42,3.13,3.8v.16c0,2.38-1.17,3.8-3.13,3.8s-3.15-1.42-3.15-3.8v-.18Z"/><polygon class="cls-4" points="44.83 17.17 38.21 5.81 34.27 5.81 34.27 22.21 37.32 22.21 37.32 10.13 44.42 22.21 47.88 22.2 47.88 5.81 44.83 5.81 44.83 17.17"/><path class="cls-4" d="M182.9,10.17c-1.57,0-2.9,.65-3.62,1.76v-1.37h-2.91v11.65h2.91v-6.93c0-1.95,1.34-2.65,2.6-2.65,1.53,0,2.19,.73,2.19,2.43v7.15h2.91v-7.39c0-3-1.45-4.65-4.08-4.65Z"/><path class="cls-4" d="M169.65,14.86c.58-.07,.99-.16,1.24-.27,.44-.19,.67-.48,.67-.88,0-.48-.17-.82-.51-1-.34-.18-.84-.28-1.5-.28-.74,0-1.27,.18-1.57,.54-.22,.27-.37,.63-.44,1.09h-2.99c.07-1.04,.36-1.89,.87-2.55,.82-1.04,2.23-1.56,4.23-1.56,1.3,0,2.46,.26,3.47,.77,1.01,.51,1.52,1.48,1.52,2.91v5.43c0,.38,.02,3.15,.02,3.15h-3.01v-1.54c-.43,.46-.92,.86-1.49,1.18-.67,.38-1.43,.58-2.27,.58-1.08,0-1.97-.31-2.67-.92-.7-.61-1.05-1.48-1.05-2.6,0-1.45,.57-2.51,1.7-3.16,.62-.35,1.53-.61,2.73-.76l1.06-.13Zm1.89,1.44c-.2,.12-.4,.22-.6,.3-.2,.08-.48,.15-.83,.21l-.7,.13c-.66,.12-1.13,.26-1.42,.42-.49,.28-.73,.72-.73,1.31,0,.53,.15,.91,.45,1.15,.3,.24,.66,.35,1.09,.35,.68,0,1.3-.2,1.87-.59,.57-.39,.87-1.1,.89-2.14v-1.15Z"/><g><path class="cls-4" d="M150.38,5.9h7.15c1.45,0,2.62,.33,3.5,1,.88,.67,1.32,1.67,1.32,3.02,0,.82-.2,1.52-.6,2.1s-.97,1.03-1.72,1.35v.05c1,.21,1.76,.69,2.27,1.42s.77,1.65,.77,2.76c0,.64-.11,1.23-.34,1.78-.23,.55-.58,1.03-1.07,1.43-.48,.4-1.11,.72-1.86,.95s-1.66,.35-2.7,.35h-6.72V5.9Zm2.84,6.79h3.9c.68,0,1.25-.19,1.7-.58,.45-.39,.68-.94,.68-1.67,0-.82-.2-1.39-.61-1.73-.41-.33-1-.5-1.77-.5h-3.9v4.47Zm0,7.11h4.29c.86,0,1.53-.22,2.01-.67,.48-.45,.71-1.08,.71-1.9s-.24-1.42-.71-1.85c-.48-.43-1.15-.65-2.01-.65h-4.29v5.07Z"/><path class="cls-4" d="M157.1,22.21h-6.81V5.81h7.24c1.47,0,2.66,.34,3.55,1.02,.9,.68,1.35,1.72,1.35,3.09,0,.83-.21,1.56-.62,2.15-.38,.55-.91,.98-1.58,1.3,.92,.24,1.64,.71,2.13,1.41,.52,.75,.79,1.69,.79,2.81,0,.65-.12,1.26-.35,1.82-.23,.56-.6,1.06-1.09,1.47-.49,.41-1.13,.73-1.89,.97-.76,.24-1.68,.36-2.73,.36Zm-6.63-.18h6.63c1.03,0,1.93-.12,2.68-.35,.74-.23,1.36-.55,1.83-.94,.47-.39,.82-.86,1.04-1.4,.22-.54,.33-1.13,.33-1.75,0-1.08-.25-1.99-.76-2.71-.5-.71-1.24-1.18-2.22-1.38l-.07-.02v-.18l.05-.02c.72-.31,1.29-.75,1.68-1.32,.39-.56,.59-1.25,.59-2.05,0-1.31-.43-2.3-1.28-2.95-.86-.65-2.02-.98-3.44-.98h-7.06V22.03Zm7.04-2.14h-4.38v-5.25h4.38c.88,0,1.58,.23,2.07,.67,.49,.45,.74,1.09,.74,1.92s-.25,1.5-.74,1.96c-.49,.46-1.19,.69-2.07,.69Zm-4.2-.18h4.2c.83,0,1.49-.22,1.95-.65,.46-.43,.69-1.04,.69-1.83s-.23-1.37-.69-1.78c-.46-.41-1.11-.62-1.95-.62h-4.2v4.88Zm3.81-6.93h-3.99v-4.66h3.99c.79,0,1.41,.17,1.83,.52,.43,.35,.65,.95,.65,1.8,0,.75-.24,1.34-.71,1.74-.47,.4-1.06,.6-1.76,.6Zm-3.81-.18h3.81c.66,0,1.21-.19,1.64-.56,.43-.37,.65-.9,.65-1.6,0-.79-.2-1.34-.58-1.66-.39-.32-.97-.48-1.71-.48h-3.81v4.29Z"/></g><path class="cls-4" d="M191.68,18.2l1.24-1.19,3.2,5.21h3.88l-4.89-7.37,4.39-4.28h-3.79l-4.03,4.19h0V5.76h-.99c-1.09,0-1.97,.88-1.97,1.98v14.47h2.97v-4.01s0,0,0,0Z"/></g></g></svg>