<?xml version="1.0" encoding="UTF-8" standalone="no"?>
<svg
   xmlns:dc="http://purl.org/dc/elements/1.1/"
   xmlns:cc="http://creativecommons.org/ns#"
   xmlns:rdf="http://www.w3.org/1999/02/22-rdf-syntax-ns#"
   xmlns:svg="http://www.w3.org/2000/svg"
   xmlns="http://www.w3.org/2000/svg"
   viewBox="0 0 17.333332 25.333332"
   height="25.333332"
   width="17.333332"
   xml:space="preserve"
   id="svg2"
   version="1.1"><metadata
     id="metadata8"><rdf:RDF><cc:Work
         rdf:about=""><dc:format>image/svg+xml</dc:format><dc:type
           rdf:resource="http://purl.org/dc/dcmitype/StillImage" /></cc:Work></rdf:RDF></metadata><defs
     id="defs6"><clipPath
       id="clipPath20"
       clipPathUnits="userSpaceOnUse"><path
         style="clip-rule:evenodd"
         id="path18"
         d="M 98.5469,107.168 H 38.832 v 27.898 c 0,16.457 13.3907,29.852 29.8516,29.852 16.4727,0 29.8633,-13.395 29.8633,-29.852 z M 75.3516,56.7969 V 39.2148 c 0,-3.6093 -2.9453,-6.5546 -6.5547,-6.5546 -3.625,0 -6.5586,2.9453 -6.5586,6.5546 v 17.4493 l -0.0235,0.0468 c -4.6679,2.3672 -7.8554,7.1993 -7.8554,12.7579 0,7.9257 6.4219,14.3359 14.3242,14.3359 7.9141,0 14.3281,-6.4102 14.3281,-14.3359 0,-5.5118 -3.1015,-10.2579 -7.6601,-12.6719 z m 39.2574,50.3711 v 27.898 c 0,25.317 -20.5934,45.911 -45.9254,45.911 -25.3164,0 -45.9102,-20.594 -45.9102,-45.911 V 107.168 H 8.69141 V 2.71875 H 128.691 V 107.168 h -14.082 z" /></clipPath><clipPath
       id="clipPath26"
       clipPathUnits="userSpaceOnUse"><path
         id="path24"
         d="M 0,0 H 130 V 190 H 0 Z" /></clipPath></defs><g
     transform="matrix(1.3333333,0,0,-1.3333333,0,25.333333)"
     id="g10"><g
       transform="scale(0.1)"
       id="g12"><g
         id="g14"><g
           clip-path="url(#clipPath20)"
           id="g16"><g
             clip-path="url(#clipPath26)"
             id="g22"><path
               id="path28"
               style="fill:#0064cd;fill-opacity:1;fill-rule:nonzero;stroke:none"
               d="M 0,0 H 178.691 V 230.977 H 0 Z" /></g></g></g></g></g></svg>